<?xml version="1.0" encoding="utf-8"?>
<!-- Generator: Adobe Illustrator 18.0.0, SVG Export Plug-In . SVG Version: 6.00 Build 0)  -->
<!DOCTYPE svg PUBLIC "-//W3C//DTD SVG 1.1//EN" "http://www.w3.org/Graphics/SVG/1.1/DTD/svg11.dtd">
<svg version="1.1" id="Layer_1" xmlns="http://www.w3.org/2000/svg" xmlns:xlink="http://www.w3.org/1999/xlink" x="0px" y="0px"
	 viewBox="2267.7 0 1133.9 1133.9" enable-background="new 2267.7 0 1133.9 1133.9" xml:space="preserve">
<rect x="2267.7" y="0" fill="#1FADC5" width="1133.9" height="1133.9"/>
<g>
	<path fill="#FFFFFF" d="M2834.7,147.2c-231.8,0-419.8,187.9-419.8,419.7c0,231.8,187.9,419.8,419.8,419.8
		c231.8,0,419.8-187.9,419.8-419.8C3254.4,335.1,3066.5,147.2,2834.7,147.2z"/>
	<path fill="#1FADC5" d="M3110.5,702.5c0,31.2-25.3,56.5-56.5,56.5c-31.2,0-56.5-25.3-56.5-56.5v-194c0-29.4-23.9-53.2-53.2-53.2
		c-28.8,0-52.3,23-53.2,51.6c0,0.6,0,1.1,0,1.7v194c0,31.2-25.3,56.5-56.5,56.5c0,0-0.1,0-0.1,0c0,0-0.1,0-0.1,0
		c-31.2,0-56.5-25.3-56.5-56.5v-194c0-0.6,0.1-1.1,0.1-1.7c-0.9-28.6-24.4-51.6-53.2-51.6c-29.4,0-53.3,23.9-53.3,53.2v194
		c0,31.2-25.2,56.5-56.4,56.5s-56.5-25.3-56.5-56.5v-194c0-91.6,74.6-166.2,166.2-166.2c42,0,80.4,15.7,109.7,41.5
		c29.3-25.8,67.6-41.5,109.7-41.5c91.6,0,166.2,74.6,166.2,166.2V702.5z"/>
</g>
</svg>
